<svg width="23" height="38" viewBox="0 0 23 38" fill="none" xmlns="http://www.w3.org/2000/svg">
<path d="M13.7217 26.1357H7.49609C7.51237 24.6709 7.6263 23.4095 7.83789 22.3516C8.06576 21.2773 8.44824 20.3089 8.98535 19.4463C9.53874 18.5837 10.2712 17.7292 11.1826 16.8828C11.9476 16.1992 12.6149 15.5482 13.1846 14.9297C13.7542 14.3112 14.2018 13.6764 14.5273 13.0254C14.8529 12.3581 15.0156 11.6175 15.0156 10.8037C15.0156 9.8597 14.8691 9.07845 14.5762 8.45996C14.2995 7.8252 13.8763 7.34505 13.3066 7.01953C12.7533 6.69401 12.0534 6.53125 11.207 6.53125C10.5072 6.53125 9.85612 6.68587 9.25391 6.99512C8.65169 7.28809 8.15527 7.74382 7.76465 8.3623C7.3903 8.98079 7.19499 9.7946 7.17871 10.8037H0.0986328C0.147461 8.57389 0.660156 6.7347 1.63672 5.28613C2.62956 3.82129 3.95605 2.73893 5.61621 2.03906C7.27637 1.32292 9.13997 0.964844 11.207 0.964844C13.4857 0.964844 15.4388 1.33919 17.0664 2.08789C18.694 2.82031 19.9391 3.90267 20.8018 5.33496C21.6644 6.75098 22.0957 8.47624 22.0957 10.5107C22.0957 11.9268 21.819 13.1882 21.2656 14.2949C20.7122 15.3854 19.988 16.4027 19.0928 17.3467C18.1976 18.2907 17.2129 19.2673 16.1387 20.2764C15.2109 21.1064 14.5762 21.9772 14.2344 22.8887C13.9089 23.8001 13.738 24.8825 13.7217 26.1357ZM6.76367 33.6797C6.76367 32.638 7.12174 31.7754 7.83789 31.0918C8.55404 30.3919 9.51432 30.042 10.7188 30.042C11.9069 30.042 12.859 30.3919 13.5752 31.0918C14.3076 31.7754 14.6738 32.638 14.6738 33.6797C14.6738 34.6888 14.3076 35.5433 13.5752 36.2432C12.859 36.943 11.9069 37.293 10.7188 37.293C9.51432 37.293 8.55404 36.943 7.83789 36.2432C7.12174 35.5433 6.76367 34.6888 6.76367 33.6797Z" fill="white"/>
</svg>
